<svg xmlns="http://www.w3.org/2000/svg" x="0px" y="0px" width="100" height="100" viewBox="0 0 48 48">
<path fill="#d6e5e5" d="M38.004,3.644c-4.127-0.062-4.85,0.121-10.35,0.121c-0.906,0-4.081,0.089-6.323,0.036	c-2.231-0.053-4.124-0.322-6.352-0.175c-3.044,0.2-6.181-0.043-8.793,1.092c-2.407,1.046-2.752,4.879-2.86,7.051	C3.218,13.941,3.274,15.95,3.729,23.26c0.373,5.984,0.372,6.269,0.143,11.903c-0.083,2.056-0.352,4.888,0.935,6.492	c1.24,1.545,1.78,2.222,6.28,2.222c4.447,0,5.929-0.239,10.376-0.216c1.699,0.009,5.208,0.212,6.908,0.22	c1.371,0.007,3.979,0.046,5.35,0.025c1.275-0.02,2.919,0.002,4.228,0.025c2.193,0.038,5.202-1.154,5.511-3.881	c0.063-0.555,0.136-1.274,0.153-2.094c0.022-1.048,0.077-5.476,0.032-6.01c-0.202-2.4-0.123-4.699-0.123-9.699	c0-1.388,0.307-5.264,0.335-6.652c0.072-3.512,0.184-5.396,0-6.5C43.357,6.096,42.702,3.644,38.004,3.644"></path><path fill="#010101" d="M38.062,44.433c-0.041,0-0.081,0-0.121-0.001c-1.29-0.022-2.934-0.045-4.212-0.024	c-0.967,0.017-2.551,0-3.883-0.013l-1.477-0.012c-0.854-0.005-2.164-0.058-3.472-0.11c-1.295-0.053-2.59-0.106-3.436-0.11	c-2.28-0.011-3.749,0.045-5.304,0.104c-1.428,0.055-2.905,0.111-5.07,0.111c-4.555,0-5.294-0.694-6.667-2.406	c-1.292-1.61-1.171-4.187-1.073-6.257l0.026-0.572c0.23-5.687,0.228-5.908-0.143-11.852c-0.469-7.52-0.51-9.394-0.403-11.547	c0.133-2.682,0.606-6.375,3.16-7.485c2.066-0.897,4.45-0.97,6.755-1.039c0.734-0.022,1.472-0.045,2.205-0.093	c1.474-0.097,2.777-0.018,4.155,0.066c0.725,0.044,1.462,0.089,2.241,0.107C22.928,3.339,25,3.305,26.372,3.282	c0.566-0.009,1.019-0.017,1.282-0.017c2.643,0,4.174-0.042,5.524-0.079c1.439-0.039,2.681-0.073,4.83-0.042	c4.961,0.001,5.808,2.659,6.343,5.87c0.149,0.896,0.115,2.222,0.059,4.417c-0.017,0.646-0.035,1.367-0.052,2.175	c-0.013,0.628-0.082,1.761-0.155,2.946c-0.088,1.448-0.18,2.946-0.18,3.695c0,1.221-0.005,2.279-0.009,3.219	c-0.013,2.896-0.021,4.645,0.13,6.438c0.051,0.603-0.013,5.26-0.03,6.063c-0.018,0.828-0.089,1.546-0.157,2.14	C43.636,42.935,40.704,44.433,38.062,44.433z M34.852,43.399c1.04,0,2.167,0.017,3.106,0.032c1.898,0.065,4.73-1.012,5.005-3.438	c0.064-0.57,0.133-1.261,0.15-2.048c0.026-1.205,0.074-5.479,0.034-5.958c-0.154-1.837-0.146-3.602-0.134-6.525	c0.004-0.938,0.009-1.996,0.009-3.215c0-0.78,0.093-2.293,0.182-3.757c0.072-1.168,0.14-2.286,0.153-2.904	c0.017-0.811,0.035-1.534,0.052-2.181c0.055-2.136,0.088-3.425-0.045-4.228c-0.507-3.041-1.154-5.034-5.36-5.034h-0.007	c-2.128-0.03-3.362,0.003-4.791,0.041c-1.357,0.038-2.895,0.08-5.552,0.08c-0.26,0-0.707,0.008-1.266,0.017	c-1.379,0.023-3.462,0.059-5.07,0.019c-0.792-0.019-1.541-0.064-2.278-0.109c-1.346-0.082-2.616-0.159-4.029-0.066	c-0.744,0.049-1.494,0.071-2.24,0.094c-2.312,0.07-4.496,0.137-6.387,0.958c-2.044,0.888-2.44,4.201-2.56,6.616	c-0.105,2.112-0.063,3.965,0.402,11.436c0.37,5.938,0.374,6.272,0.144,11.955l-0.026,0.578c-0.09,1.901-0.202,4.269,0.852,5.581	c1.189,1.481,1.633,2.035,5.89,2.035c2.146,0,3.612-0.057,5.031-0.11c1.565-0.06,3.045-0.118,5.347-0.105	c0.854,0.005,2.163,0.058,3.471,0.11c1.295,0.053,2.591,0.106,3.437,0.11l1.481,0.012c1.324,0.013,2.896,0.028,3.858,0.013	C34.069,43.401,34.454,43.399,34.852,43.399z"></path><path fill="#ef4754" d="M29.075,13.343c1.715-1.869,3.663-3.162,5.346-2.778c1.567,0.358,3.191,1.453,3.63,2.999	s0.342,3.55-0.421,4.964c-0.638,1.182-1.42,2.672-2.383,3.608c-1.84,1.789-3.493,2.86-5.457,4.511	c-0.13,0.11-0.279,0.225-0.449,0.217c-0.145-0.007-0.424,0.085-0.803-0.177c-1.665-1.153-2.003-1.226-3.863-2.756	c-1.781-1.465-2.493-2.059-3.39-3.735c-0.898-1.676-1.734-4.176-1.352-6.038c0.378-1.838,1.329-3.969,4.476-3.974	C26.765,10.183,27.967,12.415,29.075,13.343"></path><path fill="#010101" d="M29.113,27.374c-0.226,0-0.526-0.043-0.861-0.275c-0.521-0.361-0.912-0.615-1.26-0.843	c-0.779-0.507-1.343-0.874-2.635-1.938c-1.758-1.445-2.561-2.105-3.514-3.884c-0.947-1.769-1.812-4.371-1.401-6.375	c0.595-2.897,2.265-4.369,4.964-4.373c0.002,0,0.005,0,0.007,0c1.976,0,3.233,1.397,4.151,2.419c0.169,0.188,0.333,0.37,0.49,0.531	c1.461-1.499,3.503-3.008,5.478-2.559c1.623,0.37,3.489,1.549,4,3.35c0.506,1.783,0.325,3.879-0.462,5.338l-0.082,0.152	c-0.631,1.171-1.416,2.627-2.393,3.577c-1.176,1.143-2.262,1.986-3.412,2.879c-0.665,0.517-1.348,1.047-2.073,1.656	c-0.144,0.122-0.412,0.357-0.793,0.334C29.26,27.369,29.191,27.374,29.113,27.374z M24.414,10.687c-0.001,0-0.003,0-0.005,0	c-2.22,0.004-3.487,1.14-3.987,3.574c-0.358,1.744,0.478,4.161,1.303,5.701c0.86,1.604,1.515,2.144,3.268,3.585	c1.25,1.027,1.793,1.382,2.546,1.871c0.354,0.231,0.752,0.49,1.284,0.858c0.16,0.11,0.251,0.103,0.38,0.095	c0.062-0.005,0.115-0.01,0.162-0.005c-0.018-0.005,0.03-0.04,0.102-0.101c0.737-0.619,1.43-1.157,2.104-1.682	c1.127-0.875,2.192-1.702,3.328-2.806c0.867-0.843,1.611-2.225,2.209-3.335l0.083-0.152c0.66-1.223,0.812-3.067,0.38-4.59	c-0.399-1.407-1.926-2.344-3.261-2.648c-1.305-0.296-3.036,0.635-4.866,2.628l-0.323,0.352l-0.366-0.306	c-0.31-0.259-0.612-0.596-0.933-0.952C26.942,11.796,25.945,10.687,24.414,10.687z"></path>
</svg>